<?xml version="1.0" standalone="no"?>
<!DOCTYPE svg PUBLIC "-//W3C//DTD SVG 20010904//EN"
 "http://www.w3.org/TR/2001/REC-SVG-20010904/DTD/svg10.dtd">
<svg version="1.0" xmlns="http://www.w3.org/2000/svg"
 width="256.000000pt" height="256.000000pt" viewBox="0 0 256.000000 256.000000"
 preserveAspectRatio="xMidYMid meet">

<g transform="translate(0.000000,256.000000) scale(0.100000,-0.100000)"
fill="#000000" stroke="none">
<path d="M1165 2548 c-27 -5 -87 -27 -132 -49 -98 -47 -193 -136 -239 -223
-27 -53 -32 -57 -84 -71 -604 -169 -703 -579 -198 -814 45 -22 117 -49 158
-62 41 -12 76 -23 78 -25 2 -1 -26 -124 -63 -273 l-67 -270 -34 -20 c-70 -42
-82 -130 -25 -185 60 -58 155 -37 188 41 18 45 5 102 -31 131 l-24 18 96 388
c90 365 94 390 78 402 -14 10 -16 20 -11 46 13 57 23 67 103 92 42 13 78 23
79 23 0 -1 -25 -110 -57 -242 -33 -132 -56 -243 -52 -247 4 -4 20 -8 36 -10
l30 -3 63 254 c35 140 66 257 69 260 8 9 219 14 267 7 l43 -7 74 -300 74 -300
31 7 c16 3 33 8 36 10 4 2 -25 128 -62 281 -38 152 -68 280 -67 284 5 13 157
-41 167 -59 5 -10 12 -34 16 -53 6 -31 4 -37 -13 -41 -20 -6 -20 -6 3 -99 13
-52 92 -371 175 -709 83 -338 153 -623 156 -632 5 -17 -35 -18 -745 -18 -413
0 -751 3 -751 8 0 4 20 86 45 182 24 96 42 176 41 178 -2 1 -18 7 -35 12 -23
6 -33 6 -36 -3 -2 -7 -27 -104 -55 -217 -28 -113 -53 -213 -56 -222 -5 -17 40
-18 846 -18 806 0 851 1 846 18 -16 51 -317 1284 -314 1286 2 2 37 13 78 25
163 49 333 147 404 234 148 180 85 382 -164 527 -70 41 -192 91 -280 115 -52
14 -57 18 -84 71 -46 87 -142 176 -239 223 -120 58 -234 73 -362 49z m257 -88
c86 -26 177 -87 227 -150 23 -29 41 -55 41 -59 0 -4 -39 -1 -87 7 -168 27
-618 18 -726 -14 -58 -18 93 140 174 181 83 43 126 54 220 54 60 1 107 -5 151
-19z m69 -270 c299 -29 499 -102 626 -230 134 -134 129 -278 -15 -411 -58 -54
-162 -116 -243 -144 l-43 -16 21 23 c32 36 43 63 43 108 0 52 -18 87 -69 133
-104 94 -297 147 -531 147 -235 0 -436 -56 -533 -149 -50 -47 -67 -80 -67
-131 0 -45 11 -72 43 -107 26 -29 24 -29 -65 3 -369 133 -491 335 -310 513 70
69 145 114 265 159 147 55 258 79 492 106 69 7 290 5 386 -4z m-817 -1532 c16
-26 -4 -53 -40 -53 -23 0 -30 5 -32 23 -7 47 47 69 72 30z"/>
<path d="M1218 2104 c-80 -43 -75 -170 8 -209 40 -19 68 -19 108 0 60 29 83
103 51 165 -28 55 -109 76 -167 44z m97 -98 c0 -52 -63 -62 -73 -12 -7 33 6
47 40 44 29 -3 33 -7 33 -32z"/>
<path d="M778 2024 c-81 -43 -74 -170 10 -210 102 -48 210 64 158 164 -29 57
-109 79 -168 46z m92 -79 c15 -18 10 -45 -12 -59 -33 -20 -69 20 -54 60 7 18
50 18 66 -1z"/>
<path d="M1654 2021 c-62 -38 -70 -129 -16 -183 74 -75 202 -23 202 82 0 95
-103 151 -186 101z m101 -95 c0 -36 -27 -56 -52 -40 -40 25 -20 77 26 72 21
-2 26 -8 26 -32z"/>
<path d="M458 1864 c-53 -28 -73 -105 -43 -164 34 -66 132 -78 187 -23 98 98
-22 254 -144 187z m92 -79 c15 -18 10 -45 -12 -59 -33 -20 -69 20 -54 60 7 18
50 18 66 -1z"/>
<path d="M1978 1862 c-64 -39 -74 -131 -20 -185 76 -75 202 -24 202 83 0 93
-103 151 -182 102z m97 -96 c0 -36 -27 -56 -52 -40 -40 25 -20 77 26 72 21 -2
26 -8 26 -32z"/>
<path d="M520 2440 l0 -40 -40 0 -40 0 0 -40 0 -40 40 0 40 0 0 -40 0 -40 40
0 c40 0 40 0 40 39 0 39 1 40 38 43 35 3 37 5 40 41 l3 37 -40 0 -41 0 0 40 0
40 -40 0 -40 0 0 -40z"/>
<path d="M2100 2378 c-63 -43 -72 -124 -19 -177 53 -53 134 -44 177 19 69 101
-57 227 -158 158z m95 -92 c0 -36 -27 -56 -52 -40 -40 25 -20 77 26 72 21 -2
26 -8 26 -32z"/>
<path d="M2120 1240 l0 -40 -40 0 -40 0 0 -40 0 -40 40 0 40 0 0 -40 0 -40 40
0 40 0 0 40 0 40 40 0 40 0 0 40 0 40 -40 0 -40 0 0 40 0 40 -40 0 -40 0 0
-40z"/>
<path d="M840 780 l0 -140 80 0 80 0 0 -100 0 -100 40 0 40 0 0 240 0 240 -40
0 -40 0 0 -100 0 -100 -40 0 -40 0 0 100 0 100 -40 0 -40 0 0 -140z"/>
<path d="M1160 680 l0 -240 120 0 120 0 0 240 0 240 -120 0 -120 0 0 -240z
m160 0 l0 -160 -40 0 -40 0 0 160 0 160 40 0 40 0 0 -160z"/>
<path d="M1480 780 l0 -140 80 0 80 0 0 -100 0 -100 40 0 40 0 0 240 0 240
-40 0 -40 0 0 -100 0 -100 -40 0 -40 0 0 100 0 100 -40 0 -40 0 0 -140z"/>
</g>
</svg>
